<?xml version="1.0" encoding="utf-8"?>
<!-- Generator: Adobe Illustrator 18.1.1, SVG Export Plug-In . SVG Version: 6.00 Build 0)  -->
<!DOCTYPE svg PUBLIC "-//W3C//DTD SVG 1.1//EN" "http://www.w3.org/Graphics/SVG/1.1/DTD/svg11.dtd">
<svg version="1.1" id="Layer_1" xmlns="http://www.w3.org/2000/svg" xmlns:xlink="http://www.w3.org/1999/xlink" x="0px" y="0px"
	 viewBox="0 0 276 346" style="enable-background:new 0 0 276 346;" xml:space="preserve">
<style type="text/css">
	.st0{fill:none;stroke:#87724F;stroke-miterlimit:10;}
	.st1{fill:#87724F;}
</style>
<g>
	<path class="st0" d="M275.5,326.5V19.8c-10.5,0-19-8.5-19-19c0-0.1,0-0.2,0-0.3H19.1c0,0.1,0,0.2,0,0.3c0,10.4-8.3,18.8-18.7,19
		v306.7c10.3,0.2,18.7,8.6,18.7,19h237.3C256.5,335,265,326.5,275.5,326.5z"/>
	<g>
		<path class="st1" d="M7.9,5.4c2.4,2.4,2.1,3.2,1.4,3.9s-1.5,1-3.9-1.4S0.5,0.5,0.5,0.5S5.5,2.9,7.9,5.4z"/>
		<g>
			<circle class="st1" cx="4.5" cy="10.6" r="1.7"/>
			<circle class="st1" cx="10.6" cy="4.5" r="1.7"/>
		</g>
	</g>
	<g>
		<path class="st1" d="M268.1,5.4c-2.4,2.4-2.1,3.2-1.4,3.9c0.7,0.7,1.5,1,3.9-1.4s4.9-7.4,4.9-7.4S270.5,2.9,268.1,5.4z"/>
		<g>
			<circle class="st1" cx="271.5" cy="10.6" r="1.7"/>
			<circle class="st1" cx="265.4" cy="4.5" r="1.7"/>
		</g>
	</g>
	<g>
		<path class="st1" d="M268.1,340.6c-2.4-2.4-2.1-3.2-1.4-3.9c0.7-0.7,1.5-1,3.9,1.4s4.9,7.4,4.9,7.4S270.5,343.1,268.1,340.6z"/>
		<g>
			<circle class="st1" cx="271.5" cy="335.4" r="1.7"/>
			<circle class="st1" cx="265.4" cy="341.5" r="1.7"/>
		</g>
	</g>
	<g>
		<path class="st1" d="M7.9,340.6c2.4-2.4,2.1-3.2,1.4-3.9c-0.7-0.7-1.5-1-3.9,1.4s-4.9,7.4-4.9,7.4S5.5,343.1,7.9,340.6z"/>
		<g>
			<circle class="st1" cx="4.5" cy="335.4" r="1.7"/>
			<circle class="st1" cx="10.6" cy="341.5" r="1.7"/>
		</g>
	</g>
</g>
<g>
</g>
<g>
</g>
<g>
</g>
<g>
</g>
<g>
</g>
<g>
</g>
<g>
</g>
<g>
</g>
<g>
</g>
<g>
</g>
<g>
</g>
<g>
</g>
<g>
</g>
<g>
</g>
<g>
</g>
</svg>
