<?xml version="1.0" encoding="utf-8"?>
<!-- Generator: Adobe Illustrator 18.1.1, SVG Export Plug-In . SVG Version: 6.00 Build 0)  -->
<!DOCTYPE svg PUBLIC "-//W3C//DTD SVG 1.1//EN" "http://www.w3.org/Graphics/SVG/1.1/DTD/svg11.dtd">
<svg version="1.1" id="Layer_1" xmlns="http://www.w3.org/2000/svg" xmlns:xlink="http://www.w3.org/1999/xlink" x="0px" y="0px"
	 viewBox="0 0 562.3 308.5" style="enable-background:new 0 0 562.3 308.5;" xml:space="preserve">
<style type="text/css">
	.st0{fill:#BB9D6E;}
</style>
<g>
	<path class="st0" d="M426,179.4C426,179.4,426.1,179.4,426,179.4c27-8.1,55-19.1,81.9-33.7c43.1-25.1,65.1,1,49.2,40.3
		c-13.6,37.3-86.1,106.7-149.3,122.5c-24.2-17.1-71.7-28.8-126.6-29c-54.8,0.2-102.4,11.9-126.6,29C91.3,292.7,18.8,223.3,5.2,186
		c-16-39.4,6.1-65.4,49.2-40.3c27,14.7,54.9,25.7,81.8,33.8c57.9,17.4,111,21.7,138.8,21.7l15.3,0C318,200.9,369.8,196.3,426,179.4z
		"/>
	<g id="XMLID_1_">
		<path class="st0" d="M347.9,4.1c22.5,11.3,59.2,117.3,73.4,160.8c-54.4,15.8-104.1,20.1-131.1,20.4l-15.3,0
			c-27.1,0-78-4.1-134.1-20.4c14.2-43.4,50.9-149.5,73.5-160.8c25.9-12.9,48,8.5,65.9,10.6h-3.4c1.4,0.2,2.9,0.2,4.3,0.1
			c1.5,0.1,2.9,0.1,4.3-0.1H282C299.9,12.6,322-8.8,347.9,4.1z M339.1,86.4c0-4.7-3.8-8.5-8.5-8.5c-4.3,0-7.9,3.2-8.4,7.4l-26.2-3.8
			L284.3,58c3.1-1.3,5.3-4.3,5.3-7.9c0-4.7-3.8-8.5-8.5-8.5c-4.7,0-8.5,3.8-8.5,8.5c0,3.6,2.2,6.7,5.4,7.9l-11.6,23.4l-26.3,3.8
			c-0.6-4.2-4.1-7.4-8.4-7.4c-4.7,0-8.5,3.8-8.5,8.5c0,4.7,3.8,8.5,8.5,8.5c2.9,0,5.5-1.4,7-3.6l18.7,18.2l-4.7,27.4
			c-1-0.4-2.2-0.7-3.4-0.7c-4.7,0-8.5,3.8-8.5,8.5c0,4.7,3.8,8.5,8.5,8.5c4.7,0,8.5-3.8,8.5-8.5c0-1.8-0.5-3.4-1.5-4.8l24.9-13.1
			l24.8,13.1c-0.9,1.4-1.5,3-1.5,4.8c0,4.7,3.8,8.5,8.5,8.5c4.7,0,8.5-3.8,8.5-8.5c0-4.7-3.8-8.5-8.5-8.5c-1.2,0-2.3,0.2-3.3,0.7
			l-4.7-27.3l18.6-18.2c1.5,2.2,4.1,3.6,6.9,3.6C335.3,94.9,339.1,91.1,339.1,86.4z"/>
	</g>
</g>
<g>
</g>
<g>
</g>
<g>
</g>
<g>
</g>
<g>
</g>
<g>
</g>
<g>
</g>
<g>
</g>
<g>
</g>
<g>
</g>
<g>
</g>
<g>
</g>
<g>
</g>
<g>
</g>
<g>
</g>
</svg>
