<?xml version="1.0" encoding="utf-8"?>
<!-- Generator: Adobe Illustrator 18.1.1, SVG Export Plug-In . SVG Version: 6.00 Build 0)  -->
<!DOCTYPE svg PUBLIC "-//W3C//DTD SVG 1.1//EN" "http://www.w3.org/Graphics/SVG/1.1/DTD/svg11.dtd">
<svg version="1.1" id="Layer_1" xmlns="http://www.w3.org/2000/svg" xmlns:xlink="http://www.w3.org/1999/xlink" x="0px" y="0px"
	 viewBox="0 0 204.1 203.5" style="enable-background:new 0 0 204.1 203.5;" xml:space="preserve">
<style type="text/css">
	.st0{fill:#BB9D6E;}
</style>
<g id="Your_Icon_2_">
	<path class="st0" d="M31.8,202.1c2.5,0.2,4.6-1.5,5.1-3.8c-0.2,2.6,1.7,4.9,4.3,5.2c2.6,0.2,5-1.7,5.2-4.3c0.3-2.8,0.9-10,1.2-12.5
		c0.1,0,0.1,0,0.2,0c17,1.4,36.3-11.3,40.1-38.2c1.6-11.7-1.3-23.3-8.4-32.7c-4.8-6.4-11.1-11.2-18.3-14.2c0.5-1.1,0.9-2.2,1.1-3.4
		c0.4-3.1-0.4-6.1-2.2-8.6c-1.9-2.5-4.6-4.1-7.7-4.5c-5.7-0.8-11.2,2.8-12.8,8.3c-0.1,0.5-0.3,1-0.3,1.6c-0.2,1.2-0.1,2.4,0.1,3.6
		c-1.3,0.1-2.5,0.3-3.7,0.6l-3-8.3c3.1-2.2,5.4-5.3,6.5-9c0.5-1.8,0.7-3.7,0.6-5.7l-1.4-21.1c-0.1-2-0.6-3.9-1.4-5.6L48.1,40
		c0.3,0.1,0.5,0.3,0.8,0.4c4,2,8.5,2.3,12.8,0.8l20-6.8c5.2-1.8,9.2-6,10.7-11.2c0,0,0-0.1,0-0.1l9.9-0.2c1.6,4.1,4.8,7.5,9.1,9.2
		l19.6,8.1c4.1,1.7,8.5,1.7,12.6,0l4.4,5.6c-0.9,1.4-1.6,2.9-2.1,4.6c-0.6,2.2-0.8,4.5-0.5,6.8l2.9,21c0.9,6.3,5.1,11.2,10.7,13.4
		l-0.2,6.9c-14.7,0.5-28.8,8.2-36.8,21.9c-2.5,4.3-4.3,8.6-5.5,12.7c-5.2,18.4,1.7,34.4,13.4,42.1c0.1,0,0.1,0.1,0.2,0.1
		c-1.4,2.3-5.2,8.4-6.7,10.8c-1.4,2.2-0.7,5.2,1.5,6.6c2.2,1.4,5.2,0.7,6.6-1.5l0,0c-0.2,0.3-0.3,0.6-0.4,0.9c-0.6,2,0.2,4.2,2,5.3
		c2.2,1.4,5.2,0.7,6.6-1.5c0.6-0.9,5.3-8.4,6.9-11.1c0.1,0,0.1,0,0.2,0.1c15.3,7.7,37.8,3.2,51.5-20.4c10.3-17.7,6.8-39.7-7.2-53.4
		c0.9-0.8,1.7-1.7,2.3-2.8c0.5-0.8,0.9-1.7,1.1-2.7c1.5-5.1-0.7-10.6-5.4-13.3c-5.6-3.2-12.7-1.3-15.9,4.2c-0.5,0.8-0.9,1.7-1.1,2.7
		c-0.1,0.2-0.1,0.5-0.1,0.7c-1.2-0.3-2.4-0.6-3.7-0.9l0.2-7c5.9-1.3,10.7-5.8,12.4-11.7c0.6-2.2,0.8-4.5,0.5-6.8l-2.9-21
		c-1.3-9.1-9.7-15.5-18.8-14.3c-1.5,0.2-3,0.6-4.4,1.2l-4.3-5.4c0.7-1,1.3-2,1.7-3.2c3.5-8.6-0.6-18.3-9.1-21.8l-19.6-8.1
		c-4.1-1.7-8.7-1.7-12.8,0c-4.1,1.7-7.3,4.9-9,9.1c-0.2,0.6-0.5,1.2-0.6,1.8c-0.1,0.4-0.2,0.8-0.3,1.2l-9.3,0.2c0-0.1,0-0.2-0.1-0.3
		c-1.4-4.2-4.4-7.6-8.4-9.6c-4-2-8.5-2.3-12.8-0.8l-20,6.8c-5.2,1.8-9.2,6-10.7,11.2c-0.9,3.3-0.8,6.7,0.3,9.9
		c0.3,0.8,0.6,1.5,1,2.3L30.6,42c-3-2-6.5-2.9-10.2-2.7c-7,0.5-13,5.3-15,12.1c-0.5,1.8-0.7,3.7-0.6,5.7l1.4,21.1
		c0.6,9,8.3,15.9,17.2,15.6l3,8.1c-11.7,5.2-20.9,15.3-24.6,28.2c-0.5,1.9-1,3.9-1.3,5.9c-3.8,27,11.2,44.5,27.9,47.8
		c0.1,0,0.2,0,0.2,0.1c-0.4,3.1-1.2,11.9-1.3,13C27.2,199.6,29.2,201.9,31.8,202.1z M190,159.9c-8.1,13.9-24.1,24.1-38.9,16.6
		c-4.6-2.3-9.9-1-12.3,2.9c2.2-4,0.7-9.3-3.6-12.1c-13.9-9.2-13-28.1-4.9-42c9.6-16.5,30.7-22.1,47.2-12.5
		C193.9,122.2,199.5,143.4,190,159.9z M181.5,101.6c0.6-1,1.9-1.3,2.8-0.8c0.8,0.5,1.2,1.5,1,2.4c0,0.2-0.1,0.3-0.2,0.5
		c-0.6,1-1.8,1.3-2.8,0.8c0,0,0,0,0,0c0,0,0,0,0,0C181.2,103.8,180.9,102.5,181.5,101.6z M169.1,54l2.9,21c0.1,1,0.1,2-0.2,2.9
		c-0.5,1.7-1.5,3-2.9,4l0.2-6.8c0.1-2.6-2-4.8-4.6-4.9c-2.2-0.1-4.2,1.4-4.8,3.5c-0.1,0.4-0.2,0.8-0.2,1.2l-0.2,5.7
		c-0.8-1-1.4-2.2-1.6-3.5l-2.9-21c-0.1-0.5-0.1-1,0-1.5l3.3,4.2c1.6,2.1,4.6,2.4,6.7,0.8c2.1-1.6,2.4-4.6,0.8-6.7l-3.8-4.9
		C165.4,47.8,168.6,50.4,169.1,54z M115.1,10.1c1.8-0.7,3.7-0.7,5.5,0l19.6,8.1c3.1,1.3,4.8,4.5,4.3,7.7l-2.3-2.9
		c-1.6-2.1-4.6-2.4-6.7-0.8c-0.8,0.6-1.4,1.5-1.6,2.4c-0.4,1.4-0.1,3,0.8,4.3l2.4,3c-0.8,0-1.6-0.2-2.3-0.5l-19.6-8.1
		c-0.4-0.2-0.8-0.4-1.2-0.6l3.6-0.1c2.6-0.1,4.7-2.2,4.7-4.9c-0.1-2.6-2.2-4.7-4.9-4.7l-5.7,0.1C112.5,11.8,113.6,10.7,115.1,10.1z
		 M54,18.7l20-6.8c1.8-0.6,3.7-0.5,5.5,0.4c0.8,0.4,1.5,0.9,2.1,1.6l-3.8,0.1c-2.1,0-3.9,1.5-4.5,3.5c-0.1,0.4-0.2,0.9-0.2,1.4
		c0.1,2.6,2.2,4.7,4.9,4.7l3.7-0.1c-0.8,0.9-1.8,1.7-3,2.1l-20,6.8c-0.5,0.2-0.9,0.3-1.4,0.3l3.5-2.9c2-1.7,2.3-4.7,0.6-6.7
		c-1.7-2-4.7-2.3-6.7-0.7l-5.3,4.4C48.8,23.3,50.8,19.8,54,18.7z M15.8,77.6l-1.4-21.1c-0.2-3.9,2.8-7.4,6.7-7.6c0.4,0,0.8,0,1.2,0
		L19,51.6c-0.8,0.6-1.3,1.5-1.6,2.4c-0.4,1.5-0.1,3.1,0.9,4.4c1.7,2,4.7,2.3,6.7,0.7l3.6-2.9L30,76.7c0.1,0.8,0,1.6-0.3,2.4
		c-0.2,0.7-0.5,1.3-0.9,1.9l-1.7-4.6c-0.9-2.5-3.7-3.8-6.1-2.8c-1.5,0.5-2.5,1.8-3,3.2c-0.3,0.9-0.3,2,0.1,3l1.4,3.8
		C17.5,82.3,16,80.2,15.8,77.6z M49,97.7c-0.2-0.3-0.5-0.8-0.4-1.5c0.1-1.1,1.2-1.9,2.3-1.8c0.7,0.1,1.2,0.5,1.4,0.8
		c0.2,0.3,0.5,0.8,0.4,1.5c0,0.1,0,0.2-0.1,0.3c-0.3,1-1.3,1.6-2.3,1.5l0,0c0,0,0,0,0,0C49.7,98.4,49.2,98,49,97.7z M10.1,137.4
		c2.7-18.8,20.2-32,39-29.4c9.1,1.3,17.2,6.1,22.8,13.4c5.5,7.4,7.9,16.5,6.6,25.6c-3,21.1-17.3,31.1-29.8,30
		c-5.1-0.4-9.5,2.8-10.3,7.3c0.5-4.6-2.9-8.9-7.9-9.9C14.1,171.2,7.8,153.3,10.1,137.4z"/>
</g>
<g>
</g>
<g>
</g>
<g>
</g>
<g>
</g>
<g>
</g>
<g>
</g>
<g>
</g>
<g>
</g>
<g>
</g>
<g>
</g>
<g>
</g>
<g>
</g>
<g>
</g>
<g>
</g>
<g>
</g>
</svg>
